<?xml version="1.0" encoding="utf-8"?>
<!-- Generator: Adobe Illustrator 16.0.3, SVG Export Plug-In . SVG Version: 6.00 Build 0)  -->
<!DOCTYPE svg PUBLIC "-//W3C//DTD SVG 1.1//EN" "http://www.w3.org/Graphics/SVG/1.1/DTD/svg11.dtd">
<svg version="1.1" id="Layer_1" xmlns="http://www.w3.org/2000/svg" xmlns:xlink="http://www.w3.org/1999/xlink" x="0px" y="0px"
	 width="887.956px" height="290.985px" viewBox="0 0 887.956 290.985" enable-background="new 0 0 887.956 290.985"
	 xml:space="preserve">
<g>
	<g>
		<path d="M27.71,268.852h-2.619V85.487h4.453l69.153,179.96V85.487h2.62v183.364h-3.929L27.71,88.107V268.852z"/>
		<path d="M136.155,224.32l-11.265,44.531h-2.619l46.364-183.626h3.668l47.412,183.626h-2.619l-11.525-44.531H136.155z
			 M136.94,221.701h67.844l-34.314-133.07L136.94,221.701z"/>
		<path d="M243.29,85.487v183.364h-2.619V85.487H243.29z"/>
		<path d="M264.245,268.852V85.487h2.619v180.745h63.393v2.619H264.245z"/>
		<path d="M427.173,85.487c28.29,0,37.196,18.861,37.196,44.008v17.813c0,28.814-12.836,42.436-42.174,42.436h-27.767v79.107h-2.619
			V85.487H427.173z M422.196,187.125c28.028,0,39.554-12.313,39.554-39.816v-17.813c0-23.838-7.858-41.388-34.576-41.388h-32.744
			v99.018H422.196z"/>
		<path d="M485.324,130.543c0-25.147,10.479-46.364,38.245-46.364c28.028,0,38.506,21.217,38.506,46.364v93.254
			c0,25.146-10.478,46.365-38.506,46.365c-27.767,0-38.245-21.219-38.245-46.365V130.543z M487.944,223.797
			c0,23.838,9.168,43.746,35.625,43.746c26.456,0,35.887-19.908,35.887-43.746v-93.254c0-23.575-9.431-43.745-35.887-43.745
			c-26.457,0-35.625,20.17-35.625,43.745V223.797z"/>
		<path d="M583.027,268.852V85.487h2.62v180.745h63.391v2.619H583.027z"/>
		<path d="M672.61,85.487v183.364h-2.62V85.487H672.61z"/>
		<path d="M768.745,129.757v3.144h-2.62v-3.144c0-23.051-8.644-42.959-34.577-42.959c-25.933,0-34.577,19.646-34.577,42.697
			c0,48.198,72.036,45.579,72.036,95.087c0,24.885-9.954,45.58-37.721,45.58s-37.721-20.695-37.721-45.58v-8.645h2.62v8.645
			c0,23.576,8.906,42.961,35.101,42.961c26.195,0,35.102-19.385,35.102-42.961c0-47.412-72.036-44.793-72.036-95.087
			c0-26.457,10.74-45.055,37.196-45.316C759.052,84.179,768.745,105.134,768.745,129.757z"/>
		<path d="M792.581,178.48v90.371h-2.62V85.487h2.62v90.374h70.726V85.487h2.619v183.364h-2.619V178.48H792.581z"/>
	</g>
	<g>
		<path d="M22.031,58.374h5.447V35.305h-5.447v-1.923h7.627v5.896c2.37-3.269,5.895-6.601,10.894-6.601h0.64v2.178h-0.512
			c-4.678,0-8.268,3.205-11.021,6.217v17.302h6.023v1.923h-13.65V58.374z"/>
		<path d="M97.458,46.968c0-8.651,4.935-14.29,12.175-14.29c8.331,0,11.278,7.562,11.278,13.201c0,0.32,0,0.832-0.063,1.217H99.701
			c0.064,7.306,4.037,11.919,10.767,11.919c3.204,0,6.536-1.025,9.291-2.756v2.115c-2.499,1.474-5.511,2.628-9.291,2.628
			C102.2,61.002,97.458,55.427,97.458,46.968z M99.765,45.237h18.968c-0.256-5.254-2.819-10.638-9.163-10.638
			C103.93,34.6,100.278,38.894,99.765,45.237z"/>
		<path d="M179.421,58.374h5.447V35.305h-5.447v-1.923h7.626v24.992h5.447v1.923h-13.073V58.374z M185.446,20.823
			c1.152,0,2.114,0.96,2.114,2.114c0,1.153-0.962,2.114-2.114,2.114c-1.153,0-2.115-0.961-2.115-2.114
			C183.331,21.783,184.292,20.823,185.446,20.823z"/>
		<path d="M249.464,58.374h5.447V35.305h-5.447v-1.923h7.627v4.165c2.626-2.499,5.895-4.869,10.188-4.869
			c2.947,0,6.088,1.154,7.113,5.19c2.69-2.627,6.087-5.19,10.573-5.19c3.652,0,7.497,1.729,7.497,8.395v17.302h5.446v1.923h-13.072
			v-1.923h5.447V41.456c0-4.421-1.666-6.792-5.575-6.792c-3.716,0-6.921,2.179-9.996,5.127c0.063,0.385,0.063,0.96,0.063,1.281
			v17.302h5.446v1.923h-13.072v-1.923h5.447V41.456c0-4.421-1.666-6.792-5.575-6.792c-3.717,0-6.921,2.179-9.932,5.063v18.647h5.446
			v1.923h-13.073V58.374z"/>
		<path d="M355.011,53.312c0-6.984,7.306-8.267,11.983-8.267h6.792v-2.884c0-5.575-2.05-7.497-7.24-7.497
			c-3.461,0-6.792,0.896-9.356,1.922V34.6c2.884-1.154,6.28-1.922,9.613-1.922c6.535,0,9.163,2.948,9.163,9.1v16.597h5.319v1.923
			h-7.499v-3.653c-2.37,1.923-6.215,4.358-10.508,4.358C358.92,61.002,355.011,58.503,355.011,53.312z M373.787,54.338v-7.37h-6.792
			c-4.229,0-9.741,0.962-9.741,6.344c0,3.845,2.885,5.703,6.346,5.703C367.7,59.015,371.353,56.452,373.787,54.338z"/>
		<path d="M437.744,66.063c0-3.523,2.435-6.087,5.19-7.754c-1.474-0.705-2.435-1.666-2.435-3.331c0-2.051,1.475-3.525,3.14-4.615
			c-2.883-1.922-4.101-5.189-4.101-8.01c0-4.357,2.884-9.676,10.253-9.676c1.602,0,3.012,0.256,4.229,0.704h9.805v1.859
			l-6.985-0.129c2.243,1.923,3.204,4.742,3.204,7.241c0,4.357-2.883,9.677-10.253,9.677c-1.858,0-3.396-0.321-4.679-0.833
			c-1.408,0.896-2.563,2.114-2.563,3.332c0,5.19,19.673,0.705,19.673,11.214c0,5.768-5.96,8.011-12.624,8.011
			C441.397,73.754,437.744,70.356,437.744,66.063z M460.044,65.68c0-5.896-9.291-5.319-15.06-6.729
			c-3.14,1.602-5.126,4.102-5.126,6.921c0,3.332,2.755,6.023,9.549,6.023C455.111,71.896,460.044,69.973,460.044,65.68z
			 M441.588,42.354c0,3.461,2.244,7.754,8.203,7.754c5.96,0,8.202-4.293,8.202-7.754c0-3.46-2.242-7.754-8.202-7.754
			C443.833,34.6,441.588,38.894,441.588,42.354z"/>
		<path d="M520.349,58.374h5.446V35.305h-5.446v-1.923h7.625v24.992h5.447v1.923h-13.072V58.374z M526.373,20.823
			c1.153,0,2.113,0.96,2.113,2.114c0,1.153-0.96,2.114-2.113,2.114c-1.154,0-2.115-0.961-2.115-2.114
			C524.257,21.783,525.218,20.823,526.373,20.823z"/>
		<path d="M590.392,58.374h5.446V35.305h-5.446v-1.923h7.625v4.486c3.333-3.204,7.241-5.19,11.15-5.19
			c4.807,0,7.817,3.012,7.817,8.907v16.789h5.447v1.923h-13.073v-1.923h5.447V41.97c0-4.294-1.537-7.306-5.959-7.306
			c-4.229,0-8.011,2.756-10.83,5.446v18.264h5.447v1.923h-13.072V58.374z"/>
		<path d="M679.148,58.374h5.447V35.305h-5.447v-1.923h7.626v24.992h5.446v1.923h-13.072V58.374z M685.171,20.823
			c1.154,0,2.114,0.96,2.114,2.114c0,1.153-0.96,2.114-2.114,2.114c-1.153,0-2.115-0.961-2.115-2.114
			C683.056,21.783,684.018,20.823,685.171,20.823z"/>
		<path d="M749.191,58.374h5.447V35.305h-5.447v-1.923h7.626v4.486c3.331-3.204,7.241-5.19,11.149-5.19
			c4.807,0,7.818,3.012,7.818,8.907v16.789h5.446v1.923h-13.072v-1.923h5.446V41.97c0-4.294-1.537-7.306-5.958-7.306
			c-4.229,0-8.011,2.756-10.83,5.446v18.264h5.446v1.923h-13.072V58.374z"/>
		<path d="M837.627,66.063c0-3.523,2.435-6.087,5.19-7.754c-1.475-0.705-2.436-1.666-2.436-3.331c0-2.051,1.474-3.525,3.141-4.615
			c-2.885-1.922-4.102-5.189-4.102-8.01c0-4.357,2.883-9.676,10.253-9.676c1.603,0,3.011,0.256,4.229,0.704h9.805v1.859
			l-6.985-0.129c2.243,1.923,3.204,4.742,3.204,7.241c0,4.357-2.884,9.677-10.253,9.677c-1.858,0-3.396-0.321-4.678-0.833
			c-1.41,0.896-2.563,2.114-2.563,3.332c0,5.19,19.674,0.705,19.674,11.214c0,5.768-5.961,8.011-12.625,8.011
			C841.279,73.754,837.627,70.356,837.627,66.063z M859.927,65.68c0-5.896-9.292-5.319-15.06-6.729
			c-3.14,1.602-5.126,4.102-5.126,6.921c0,3.332,2.756,6.023,9.548,6.023C854.993,71.896,859.927,69.973,859.927,65.68z
			 M841.472,42.354c0,3.461,2.242,7.754,8.202,7.754c5.959,0,8.202-4.293,8.202-7.754c0-3.46-2.243-7.754-8.202-7.754
			C843.714,34.6,841.472,38.894,841.472,42.354z"/>
	</g>
</g>
</svg>
